<?xml version="1.0" encoding="UTF-8" standalone="no"?>
<!-- Created with Inkscape (http://www.inkscape.org/) -->

<svg
   width="210mm"
   height="297mm"
   viewBox="0 0 210 297"
   version="1.1"
   id="svg1"
   inkscape:version="1.4.4 (dcaf3e7, 2026-05-05)"
   sodipodi:docname="LearningRadar-logo.svg"
   xmlns:inkscape="http://www.inkscape.org/namespaces/inkscape"
   xmlns:sodipodi="http://sodipodi.sourceforge.net/DTD/sodipodi-0.dtd"
   xmlns="http://www.w3.org/2000/svg"
   xmlns:svg="http://www.w3.org/2000/svg">
  <sodipodi:namedview
     id="namedview1"
     pagecolor="#ffffff"
     bordercolor="#000000"
     borderopacity="0.25"
     inkscape:showpageshadow="2"
     inkscape:pageopacity="0.0"
     inkscape:pagecheckerboard="0"
     inkscape:deskcolor="#d1d1d1"
     inkscape:document-units="mm"
     showguides="true"
     inkscape:zoom="2.5852553"
     inkscape:cx="75.621157"
     inkscape:cy="137.5106"
     inkscape:window-width="3200"
     inkscape:window-height="1711"
     inkscape:window-x="2391"
     inkscape:window-y="-9"
     inkscape:window-maximized="1"
     inkscape:current-layer="layer1">
    <sodipodi:guide
       position="21.8076,288.1668"
       orientation="1,0"
       id="guide7"
       inkscape:locked="false" />
  </sodipodi:namedview>
  <defs
     id="defs1">
    <inkscape:path-effect
       effect="taper_stroke"
       start_shape="center | center"
       end_shape="center | center"
       id="path-effect7"
       is_visible="true"
       lpeversion="1"
       stroke_width="0.3"
       subpath="1"
       attach_start="0.5"
       end_offset="0.5"
       start_smoothing="0.5"
       end_smoothing="0.5"
       jointype="extrapolated"
       miter_limit="100" />
    <inkscape:path-effect
       effect="taper_stroke"
       start_shape="center | center"
       end_shape="center | center"
       id="path-effect6"
       is_visible="true"
       lpeversion="1"
       stroke_width="0.3"
       subpath="1"
       attach_start="0.5"
       end_offset="0.5"
       start_smoothing="0.5"
       end_smoothing="0.5"
       jointype="extrapolated"
       miter_limit="100" />
    <inkscape:path-effect
       effect="taper_stroke"
       start_shape="center | center"
       end_shape="center | center"
       id="path-effect5"
       is_visible="true"
       lpeversion="1"
       stroke_width="0.3"
       subpath="1"
       attach_start="0.5"
       end_offset="0.5"
       start_smoothing="0.5"
       end_smoothing="0.5"
       jointype="extrapolated"
       miter_limit="100" />
    <rect
       x="21.33419"
       y="27.898556"
       width="347.36438"
       height="166.84431"
       id="rect1" />
    <inkscape:path-effect
       effect="taper_stroke"
       start_shape="center | center"
       end_shape="center | center"
       id="path-effect5-1"
       is_visible="true"
       lpeversion="1"
       stroke_width="0.3"
       subpath="1"
       attach_start="0.5"
       end_offset="0.5"
       start_smoothing="0.5"
       end_smoothing="0.5"
       jointype="extrapolated"
       miter_limit="100" />
    <inkscape:path-effect
       effect="taper_stroke"
       start_shape="center | center"
       end_shape="center | center"
       id="path-effect6-5"
       is_visible="true"
       lpeversion="1"
       stroke_width="0.3"
       subpath="1"
       attach_start="0.5"
       end_offset="0.5"
       start_smoothing="0.5"
       end_smoothing="0.5"
       jointype="extrapolated"
       miter_limit="100" />
    <inkscape:path-effect
       effect="taper_stroke"
       start_shape="center | center"
       end_shape="center | center"
       id="path-effect7-2"
       is_visible="true"
       lpeversion="1"
       stroke_width="0.3"
       subpath="1"
       attach_start="0.5"
       end_offset="0.5"
       start_smoothing="0.5"
       end_smoothing="0.5"
       jointype="extrapolated"
       miter_limit="100" />
  </defs>
  <g
     inkscape:label="Layer 1"
     inkscape:groupmode="layer"
     id="layer1">
    <g
       id="text1"
       style="font-size:21.3333px;line-height:1;font-family:Arial;-inkscape-font-specification:Arial;white-space:pre;stroke-width:2;stroke-linecap:round;stroke-linejoin:round"
       transform="scale(0.26458333)"
       aria-label="LearningRadar">
      <path
         style="font-weight:bold;-inkscape-font-specification:'Arial Bold';fill:#404040;fill-opacity:1"
         d="M 22.969398,44.447839 V 29.30203 h 3.083329 v 12.572896 h 7.666654 v 2.572913 z m 19.333303,-3.520828 2.916662,0.489583 c -0.374999,1.069443 -0.968748,1.885414 -1.781247,2.447913 -0.805555,0.555555 -1.81597,0.833332 -3.031245,0.833332 -1.923609,0 -3.347218,-0.628471 -4.270827,-1.885414 -0.729165,-1.006943 -1.093748,-2.277774 -1.093748,-3.812494 0,-1.833331 0.479166,-3.267356 1.437497,-4.302077 0.958332,-1.041665 2.170136,-1.562497 3.635411,-1.562497 1.645831,0 2.94444,0.545138 3.895827,1.635414 0.951388,1.083331 1.406249,2.746523 1.364582,4.989575 h -7.333322 c 0.02083,0.868055 0.256944,1.545137 0.708332,2.031247 0.451388,0.479166 1.013887,0.718749 1.687497,0.718749 0.458333,0 0.843749,-0.125 1.156249,-0.374999 0.312499,-0.25 0.54861,-0.652777 0.708332,-1.208332 z m 0.166666,-2.958328 c -0.02083,-0.847221 -0.239583,-1.489582 -0.656249,-1.927081 -0.416666,-0.444443 -0.92361,-0.666665 -1.520831,-0.666665 -0.638887,0 -1.166664,0.232638 -1.58333,0.697915 -0.416666,0.465277 -0.621527,1.097221 -0.614583,1.895831 z m 7.479155,-1.208332 -2.656245,-0.479166 c 0.298611,-1.069443 0.812499,-1.861108 1.541664,-2.374996 0.729165,-0.513888 1.812497,-0.770832 3.249995,-0.770832 1.305553,0 2.277774,0.15625 2.916662,0.468749 0.638888,0.305555 1.086804,0.697916 1.343748,1.177082 0.263888,0.472221 0.395832,1.343748 0.395832,2.614579 l -0.03125,3.416661 c 0,0.972221 0.04514,1.69097 0.135417,2.156247 0.09722,0.458333 0.274305,0.951387 0.531249,1.479164 h -2.895829 c -0.07639,-0.194444 -0.170138,-0.482638 -0.281249,-0.864582 -0.04861,-0.173611 -0.08334,-0.288194 -0.104167,-0.343749 -0.499999,0.48611 -1.034721,0.850693 -1.604164,1.093748 -0.569443,0.243055 -1.177081,0.364583 -1.822914,0.364583 -1.138887,0 -2.038191,-0.309027 -2.697912,-0.927082 -0.652777,-0.618055 -0.979165,-1.399304 -0.979165,-2.343747 0,-0.624999 0.149305,-1.180553 0.447916,-1.666664 0.298611,-0.493055 0.715277,-0.868054 1.249998,-1.124998 0.541665,-0.263888 1.319442,-0.493054 2.333329,-0.687499 1.368053,-0.256944 2.315969,-0.496527 2.843746,-0.718749 v -0.291666 c 0,-0.562499 -0.138889,-0.961804 -0.416666,-1.197915 -0.277777,-0.243055 -0.802082,-0.364582 -1.572914,-0.364582 -0.520833,0 -0.927082,0.104166 -1.218748,0.312499 -0.291667,0.201389 -0.527778,0.559027 -0.708333,1.072915 z m 3.916661,2.374996 c -0.374999,0.125 -0.968748,0.274305 -1.781247,0.447916 -0.812499,0.173611 -1.343748,0.34375 -1.593748,0.510416 -0.381944,0.270833 -0.572916,0.614583 -0.572916,1.031249 0,0.409721 0.152778,0.763887 0.458333,1.062498 0.305555,0.298611 0.694444,0.447916 1.166665,0.447916 0.527777,0 1.031248,-0.173611 1.510414,-0.520833 0.354166,-0.263888 0.586805,-0.586804 0.697916,-0.968748 0.07639,-0.249999 0.114583,-0.725693 0.114583,-1.427081 z m 8.562489,5.312492 H 59.500593 V 33.385357 h 2.718746 v 1.572914 c 0.465277,-0.743055 0.881943,-1.232637 1.249998,-1.468748 0.374999,-0.236111 0.79861,-0.354166 1.270831,-0.354166 0.666665,0 1.309025,0.184027 1.92708,0.552082 L 65.761,36.239519 c -0.493055,-0.319444 -0.951388,-0.479166 -1.374998,-0.479166 -0.409722,0 -0.756944,0.114583 -1.041665,0.343749 -0.284722,0.222222 -0.510416,0.628471 -0.677082,1.218748 -0.159722,0.590277 -0.239583,1.826387 -0.239583,3.708328 z m 15.562475,0 h -2.927078 v -5.645824 c 0,-1.194443 -0.0625,-1.965275 -0.1875,-2.312497 -0.125,-0.354166 -0.329861,-0.628471 -0.614582,-0.822915 -0.277777,-0.194444 -0.614582,-0.291666 -1.010415,-0.291666 -0.506944,0 -0.961805,0.138889 -1.364582,0.416666 -0.402777,0.277777 -0.680554,0.645832 -0.833332,1.104165 -0.145833,0.458333 -0.218749,1.305553 -0.218749,2.541662 v 5.010409 H 67.90683 V 33.385357 h 2.718746 v 1.624997 c 0.965276,-1.249998 2.180552,-1.874997 3.645827,-1.874997 0.645833,0 1.23611,0.118055 1.770831,0.354166 0.534721,0.229166 0.937498,0.524304 1.208331,0.885415 0.277777,0.361111 0.468749,0.770832 0.572916,1.229165 0.111111,0.458333 0.166666,1.114582 0.166666,1.968747 z m 2.968743,0 V 33.385357 h 2.927079 v 11.062482 z m 15.989555,0 h -2.927079 v -5.645824 c 0,-1.194443 -0.0625,-1.965275 -0.187499,-2.312497 -0.125,-0.354166 -0.329861,-0.628471 -0.614583,-0.822915 -0.277777,-0.194444 -0.614582,-0.291666 -1.010415,-0.291666 -0.506943,0 -0.961804,0.138889 -1.364581,0.416666 -0.402777,0.277777 -0.680555,0.645832 -0.833332,1.104165 -0.145833,0.458333 -0.21875,1.305553 -0.21875,2.541662 v 5.010409 H 86.865128 V 33.385357 h 2.718745 v 1.624997 c 0.965277,-1.249998 2.180553,-1.874997 3.645828,-1.874997 0.645832,0 1.236109,0.118055 1.770831,0.354166 0.534721,0.229166 0.937498,0.524304 1.208331,0.885415 0.277777,0.361111 0.468749,0.770832 0.572916,1.229165 0.111111,0.458333 0.166666,1.114582 0.166666,1.968747 z m 2.697918,0.729166 3.343747,0.406249 c 0.0555,0.388888 0.184,0.656249 0.38541,0.802082 0.27778,0.208333 0.71528,0.312499 1.3125,0.312499 0.76389,0 1.3368,-0.114583 1.71875,-0.343749 0.25694,-0.152777 0.45138,-0.399305 0.58333,-0.739582 0.0903,-0.243055 0.13542,-0.690971 0.13542,-1.343748 v -1.614581 c -0.875,1.194443 -1.97917,1.791664 -3.3125,1.791664 -1.48611,0 -2.66319,-0.628471 -3.53124,-1.885414 -0.680555,-0.993054 -1.020833,-2.229163 -1.020833,-3.708327 0,-1.854164 0.444444,-3.270828 1.333333,-4.249993 0.89583,-0.979165 2.00694,-1.468748 3.33333,-1.468748 1.36805,0 2.49652,0.600693 3.38541,1.80208 v -1.55208 h 2.73958 v 9.927067 c 0,1.305553 -0.10764,2.281246 -0.32292,2.927079 -0.21528,0.645832 -0.51736,1.152776 -0.90625,1.520831 -0.38889,0.368055 -0.90972,0.656249 -1.5625,0.864582 -0.64583,0.208333 -1.46527,0.312499 -2.45833,0.312499 -1.87499,0 -3.20485,-0.322916 -3.98957,-0.968748 -0.78472,-0.638888 -1.177084,-1.451387 -1.177084,-2.437496 0,-0.09722 0.0035,-0.215277 0.01042,-0.354166 z m 2.614577,-6.489574 c 0,1.173609 0.22569,2.034719 0.67708,2.58333 0.45833,0.541665 1.02083,0.812498 1.6875,0.812498 0.71528,0 1.31945,-0.277777 1.8125,-0.833332 0.49305,-0.562499 0.73958,-1.392358 0.73958,-2.489579 0,-1.145831 -0.23611,-1.996524 -0.70833,-2.552079 -0.47222,-0.555555 -1.06944,-0.833332 -1.79167,-0.833332 -0.70139,0 -1.28125,0.274305 -1.73958,0.822915 -0.45139,0.541666 -0.67708,1.371526 -0.67708,2.489579 z"
         id="path4"
         sodipodi:nodetypes="ccccccccccscscsccccsscccssccccsscccccccccsscsccccscscccscsssccscccccccsccsccscccsccsscscccccscccsccccccccsccsscscccccscccsccccsccscscscscccssscscsscscscssscs" />
      <path
         style="font-weight:bold;-inkscape-font-specification:'Arial Bold';fill:#00a2be;fill-opacity:1"
         d="M 112.97967,44.447839 V 29.17703 h 6.48958 q 2.44791,0 3.55207,0.416666 1.11459,0.406249 1.78125,1.458331 0.66667,1.052082 0.66667,2.406246 0,1.718747 -1.01042,2.843746 -1.01041,1.114581 -3.02083,1.406247 1,0.583333 1.64583,1.281248 0.65625,0.697916 1.76042,2.479163 l 1.86458,2.979162 h -3.6875 l -2.22916,-3.322911 q -1.1875,-1.781248 -1.625,-2.23958 -0.4375,-0.468749 -0.92708,-0.635416 -0.48958,-0.177083 -1.55208,-0.177083 h -0.625 v 6.37499 z m 3.08333,-8.812486 h 2.28125 q 2.21874,0 2.77083,-0.1875 0.55208,-0.187499 0.86458,-0.645832 0.3125,-0.458333 0.3125,-1.145832 0,-0.770832 -0.41667,-1.239581 -0.40625,-0.479166 -1.15625,-0.604166 -0.375,-0.05208 -2.24999,-0.05208 H 116.063 Z m 14.47915,1.124998 -2.65625,-0.479166 q 0.44792,-1.604164 1.54166,-2.374996 1.09375,-0.770832 3.25,-0.770832 1.95833,0 2.91666,0.468749 0.95833,0.458333 1.34375,1.177082 0.39583,0.708332 0.39583,2.614579 l -0.0312,3.416661 q 0,1.458331 0.13542,2.156247 0.14583,0.687499 0.53125,1.479164 h -2.89583 q -0.11458,-0.291666 -0.28125,-0.864582 -0.0729,-0.260416 -0.10417,-0.343749 -0.75,0.729165 -1.60416,1.093748 -0.85417,0.364583 -1.82291,0.364583 -1.70834,0 -2.69792,-0.927082 -0.97916,-0.927082 -0.97916,-2.343747 0,-0.937498 0.44791,-1.666664 0.44792,-0.739582 1.25,-1.124998 0.8125,-0.395832 2.33333,-0.687499 2.05208,-0.385416 2.84375,-0.718749 v -0.291666 q 0,-0.843748 -0.41667,-1.197915 -0.41667,-0.364582 -1.57291,-0.364582 -0.78125,0 -1.21875,0.312499 -0.4375,0.302083 -0.70833,1.072915 z m 3.91666,2.374996 q -0.5625,0.1875 -1.78125,0.447916 -1.21875,0.260417 -1.59375,0.510416 -0.57291,0.40625 -0.57291,1.031249 0,0.614582 0.45833,1.062498 0.45833,0.447916 1.16666,0.447916 0.79167,0 1.51042,-0.520833 0.53125,-0.395832 0.69791,-0.968748 0.11459,-0.374999 0.11459,-1.427081 z m 15.90622,5.312492 h -2.71875 v -1.624997 q -0.67708,0.947915 -1.60416,1.416664 -0.91666,0.458333 -1.85416,0.458333 -1.90625,0 -3.27083,-1.531248 -1.35417,-1.541664 -1.35417,-4.29166 0,-2.812495 1.32292,-4.270826 1.32291,-1.468748 3.34374,-1.468748 1.85417,0 3.20833,1.541664 V 29.17703 h 2.92708 z m -7.81249,-5.770824 q 0,1.77083 0.48959,2.562496 0.70833,1.145831 1.97916,1.145831 1.01041,0 1.71875,-0.854165 0.70833,-0.864582 0.70833,-2.572913 0,-1.906247 -0.6875,-2.739579 -0.6875,-0.843748 -1.76041,-0.843748 -1.04167,0 -1.75,0.833332 -0.69792,0.822915 -0.69792,2.468746 z m 12.8854,-1.916664 -2.65625,-0.479166 q 0.44792,-1.604164 1.54167,-2.374996 1.09374,-0.770832 3.24999,-0.770832 1.95833,0 2.91666,0.468749 0.95833,0.458333 1.34375,1.177082 0.39583,0.708332 0.39583,2.614579 l -0.0312,3.416661 q 0,1.458331 0.13542,2.156247 0.14583,0.687499 0.53125,1.479164 h -2.89583 q -0.11458,-0.291666 -0.28125,-0.864582 -0.0729,-0.260416 -0.10417,-0.343749 -0.75,0.729165 -1.60416,1.093748 -0.85417,0.364583 -1.82291,0.364583 -1.70834,0 -2.69792,-0.927082 -0.97916,-0.927082 -0.97916,-2.343747 0,-0.937498 0.44791,-1.666664 0.44792,-0.739582 1.25,-1.124998 0.8125,-0.395832 2.33333,-0.687499 2.05208,-0.385416 2.84375,-0.718749 v -0.291666 q 0,-0.843748 -0.41667,-1.197915 -0.41666,-0.364582 -1.57291,-0.364582 -0.78125,0 -1.21875,0.312499 -0.4375,0.302083 -0.70833,1.072915 z m 3.91666,2.374996 q -0.5625,0.1875 -1.78125,0.447916 -1.21875,0.260417 -1.59375,0.510416 -0.57291,0.40625 -0.57291,1.031249 0,0.614582 0.45833,1.062498 0.45833,0.447916 1.16666,0.447916 0.79167,0 1.51042,-0.520833 0.53125,-0.395832 0.69791,-0.968748 0.11459,-0.374999 0.11459,-1.427081 z m 8.56248,5.312492 H 164.99 V 33.385357 h 2.71875 v 1.572914 q 0.69791,-1.114582 1.25,-1.468748 0.5625,-0.354166 1.27083,-0.354166 1,0 1.92708,0.552082 l -0.90625,2.55208 q -0.73958,-0.479166 -1.375,-0.479166 -0.61458,0 -1.04166,0.343749 -0.42709,0.333333 -0.67709,1.218748 -0.23958,0.885416 -0.23958,3.708328 z"
         id="path5" />
    </g>
    <g
       id="g7"
       transform="translate(0.02713789,-0.0309657)">
      <path
         id="path3"
         style="fill:#00a2be;fill-rule:nonzero;stroke:none;stroke-width:0.38293;stroke-linecap:square;stroke-linejoin:miter;stroke-dasharray:none;stroke-opacity:1"
         d="m 21.8076,7.8911317 c -0.64001,-0.00311 -0.997048,0.4443584 -0.997048,0.4443584 0,0 0.507459,-0.141606 0.997048,-0.1443584 0.489589,0.00275 0.997047,0.1443581 0.997047,0.1443581 0,0 -0.357038,-0.4474686 -0.997047,-0.4443581 z"
         sodipodi:nodetypes="cc"
         inkscape:path-effect="#path-effect7"
         inkscape:original-d="m 20.810552,8.3354901 c 0.550655,-0.3924777 1.443441,-0.392478 1.994095,-3e-7"
         transform="matrix(1.3818906,0,0,1.3818906,-8.3281165,-3.0152056)" />
      <path
         id="path3-8"
         style="fill:#00a2be;fill-rule:nonzero;stroke:none;stroke-width:0.38293;stroke-linecap:square;stroke-linejoin:miter;stroke-dasharray:none;stroke-opacity:0.75"
         d="m 21.807599,6.8801604 c -1.040038,-3.288e-4 -1.585069,0.7623558 -1.585069,0.7623558 0,0 0.738262,-0.4620509 1.585069,-0.4623559 0.846807,3.047e-4 1.58507,0.4623555 1.58507,0.4623555 0,0 -0.545031,-0.7626846 -1.58507,-0.7623554 z"
         sodipodi:nodetypes="cc"
         inkscape:path-effect="#path-effect6"
         inkscape:original-d="m 20.22253,7.6425162 c 0.875409,-0.8164742 2.294729,-0.8164746 3.170139,-4e-7"
         transform="matrix(1.3818906,0,0,1.3818906,-8.3281165,-2.7464443)" />
      <path
         id="path3-8-1"
         style="fill:#00a2be;fill-rule:nonzero;stroke:none;stroke-width:0.38293;stroke-linecap:square;stroke-linejoin:miter;stroke-dasharray:none;stroke-opacity:0.5"
         d="m 21.807599,5.9312321 c -1.352428,0.00154 -2.057632,1.0183107 -2.057632,1.0183107 0,0 0.912611,-0.7197654 2.057632,-0.7183107 1.145021,-0.00146 2.057633,0.7183102 2.057633,0.7183102 0,0 -0.705205,-1.0167717 -2.057633,-1.0183102 z"
         sodipodi:nodetypes="cc"
         inkscape:path-effect="#path-effect5"
         inkscape:original-d="m 19.749967,6.9495428 c 1.136397,-1.1577472 2.978866,-1.1577478 4.115265,-5e-7"
         transform="matrix(1.3818906,0,0,1.3818906,-8.3281165,-2.4776837)" />
      <path
         id="path3-1"
         style="fill:#00a2be;fill-rule:nonzero;stroke:none;stroke-width:0.38293;stroke-linecap:square;stroke-linejoin:miter;stroke-dasharray:none;stroke-opacity:1"
         d="m 21.8076,7.8911317 c -0.64001,-0.00311 -0.997048,0.4443584 -0.997048,0.4443584 0,0 0.507459,-0.141606 0.997048,-0.1443584 0.489589,0.00275 0.997047,0.1443581 0.997047,0.1443581 0,0 -0.357038,-0.4474686 -0.997047,-0.4443581 z"
         sodipodi:nodetypes="cc"
         inkscape:path-effect="#path-effect7-2"
         inkscape:original-d="m 20.810552,8.3354901 c 0.550655,-0.3924777 1.443441,-0.392478 1.994095,-3e-7"
         transform="matrix(-1.3818906,0,0,-1.3818906,51.943317,23.77799)" />
      <path
         id="path3-8-4"
         style="fill:#00a2be;fill-rule:nonzero;stroke:none;stroke-width:0.38293;stroke-linecap:square;stroke-linejoin:miter;stroke-dasharray:none;stroke-opacity:0.75"
         d="m 21.807599,6.8801604 c -1.040038,-3.288e-4 -1.585069,0.7623558 -1.585069,0.7623558 0,0 0.738262,-0.4620509 1.585069,-0.4623559 0.846807,3.047e-4 1.58507,0.4623555 1.58507,0.4623555 0,0 -0.545031,-0.7626846 -1.58507,-0.7623554 z"
         sodipodi:nodetypes="cc"
         inkscape:path-effect="#path-effect6-5"
         inkscape:original-d="m 20.22253,7.6425162 c 0.875409,-0.8164742 2.294729,-0.8164746 3.170139,-4e-7"
         transform="matrix(-1.3818906,0,0,-1.3818906,51.943317,23.509228)" />
      <path
         id="path3-8-1-2"
         style="fill:#00a2be;fill-rule:nonzero;stroke:none;stroke-width:0.38293;stroke-linecap:square;stroke-linejoin:miter;stroke-dasharray:none;stroke-opacity:0.5"
         d="m 21.807599,5.9312321 c -1.352428,0.00154 -2.057632,1.0183107 -2.057632,1.0183107 0,0 0.912611,-0.7197654 2.057632,-0.7183107 1.145021,-0.00146 2.057633,0.7183102 2.057633,0.7183102 0,0 -0.705205,-1.0167717 -2.057633,-1.0183102 z"
         sodipodi:nodetypes="cc"
         inkscape:path-effect="#path-effect5-1"
         inkscape:original-d="m 19.749967,6.9495428 c 1.136397,-1.1577472 2.978866,-1.1577478 4.115265,-5e-7"
         transform="matrix(-1.3818906,0,0,-1.3818906,51.943317,23.240468)" />
    </g>
  </g>
</svg>
